<svg width="185" height="107" viewBox="0 0 185 107" fill="none" xmlns="http://www.w3.org/2000/svg">
<path d="M90.36 34.96C90.36 36.688 89.952 38.2 89.136 39.496C88.32 40.744 87.288 41.704 86.04 42.376C84.84 43 83.664 43.312 82.512 43.312C81.408 43.312 80.352 43.048 79.344 42.52C78.384 41.944 77.76 41.296 77.472 40.576L59.976 69.808C58.632 72.064 57.408 73.672 56.304 74.632C55.248 75.544 54.024 76 52.632 76C49.416 76 47.592 73.936 47.16 69.808L44.856 48.64L30.312 69.808C28.632 72.256 27.264 73.912 26.208 74.776C25.2 75.592 24.024 76 22.68 76C19.752 76 17.976 73.696 17.352 69.088L12.744 36.544C12.6 35.584 12.312 34.816 11.88 34.24C11.496 33.664 10.992 33.112 10.368 32.584C9.936 32.2 9.624 31.888 9.432 31.648C9.24 31.36 9.144 31.048 9.144 30.712C8.904 28.936 9.96 28.048 12.312 28.048H30.24C31.344 28.048 32.16 28.288 32.688 28.768C33.264 29.2 33.528 29.8 33.48 30.568C33.48 30.952 33.36 31.336 33.12 31.72C32.928 32.056 32.712 32.368 32.472 32.656C31.944 33.232 31.56 33.784 31.32 34.312C31.08 34.84 31.008 35.536 31.104 36.4L32.976 53.752L43.776 38.272L43.56 36.544C43.464 35.632 43.224 34.888 42.84 34.312C42.456 33.736 41.928 33.184 41.256 32.656C40.776 32.224 40.44 31.888 40.248 31.648C40.056 31.36 39.96 31.048 39.96 30.712C39.72 28.936 40.776 28.048 43.128 28.048H61.128C62.232 28.048 63.072 28.288 63.648 28.768C64.224 29.2 64.488 29.8 64.44 30.568C64.44 31.192 64.104 31.888 63.432 32.656C62.952 33.232 62.592 33.784 62.352 34.312C62.112 34.84 62.016 35.536 62.064 36.4L62.928 52.096L72.648 35.104C74.232 32.368 75.768 30.472 77.256 29.416C78.744 28.312 80.688 27.76 83.088 27.76C85.248 27.76 87 28.408 88.344 29.704C89.688 31 90.36 32.752 90.36 34.96Z" fill="#F7F7F7"/>
<path d="M167.824 26.048C171.088 26.048 173.92 26.552 176.32 27.56C178.768 28.52 180.616 29.864 181.864 31.592C183.16 33.272 183.808 35.216 183.808 37.424C183.808 38.672 183.64 39.824 183.304 40.88C181.912 45.728 177.904 48.8 171.28 50.096C173.584 50.768 175.408 51.896 176.752 53.48C178.096 55.016 178.768 56.936 178.768 59.24C178.768 60.296 178.576 61.544 178.192 62.984C177.136 66.728 175 69.512 171.784 71.336C168.616 73.112 164.104 74 158.248 74H128.296C127.288 74 126.52 73.832 125.992 73.496C125.416 73.16 125.128 72.704 125.128 72.128C125.128 71.84 125.2 71.528 125.344 71.192C125.536 70.664 125.848 70.256 126.28 69.968C126.712 69.68 126.976 69.512 127.072 69.464C127.84 68.984 128.464 68.504 128.944 68.024C129.424 67.496 129.832 66.656 130.168 65.504L138.952 34.472C139.144 33.848 139.24 33.248 139.24 32.672C139.24 32.144 139.144 31.712 138.952 31.376C138.808 30.992 138.592 30.56 138.304 30.08C137.872 29.456 137.656 28.952 137.656 28.568C137.656 28.424 137.704 28.16 137.8 27.776C137.992 27.152 138.4 26.72 139.024 26.48C139.696 26.192 140.704 26.048 142.048 26.048H167.824ZM164.584 39.224C164.92 38.168 165.088 37.184 165.088 36.272C165.088 33.776 163.672 32.528 160.84 32.528H157.6L153.784 45.992H156.952C158.968 45.992 160.552 45.512 161.704 44.552C162.904 43.544 163.864 41.768 164.584 39.224ZM159.328 60.392C159.664 59.24 159.832 58.184 159.832 57.224C159.832 54.632 158.344 53.336 155.368 53.336H151.768L147.664 67.52H151.336C153.4 67.52 155.056 67.016 156.304 66.008C157.552 64.952 158.56 63.08 159.328 60.392Z" fill="#F7F7F7"/>
<path d="M107.696 37.824C113.115 37.824 117.04 38.6987 119.472 40.448C121.904 42.1547 123.12 44.352 123.12 47.04C123.12 47.8507 123.035 48.5973 122.864 49.28C122.224 52.096 120.432 54.1227 117.488 55.36C114.587 56.5547 111.152 57.152 107.184 57.152C105.179 57.152 103.301 57.024 101.552 56.768C101.509 58.9867 102.107 60.544 103.344 61.44C104.581 62.336 106.309 62.784 108.528 62.784C109.552 62.784 110.533 62.6773 111.472 62.464C112.411 62.208 113.605 61.8453 115.056 61.376C116.251 60.9493 117.061 60.736 117.488 60.736C117.957 60.736 118.192 61.0133 118.192 61.568C118.235 63.0613 117.68 64.64 116.528 66.304C115.376 67.9253 113.669 69.312 111.408 70.464C109.147 71.616 106.416 72.192 103.216 72.192C98.48 72.192 94.5973 70.9973 91.568 68.608C88.5387 66.2187 87.024 62.7413 87.024 58.176C87.024 56.896 87.1947 55.4027 87.536 53.696C88.6027 48.448 90.928 44.5013 94.512 41.856C98.1387 39.168 102.533 37.824 107.696 37.824ZM102 52.928C102.171 52.9707 102.405 52.992 102.704 52.992C104.496 52.992 105.861 52.16 106.8 50.496C107.739 48.832 108.187 46.976 108.144 44.928C108.101 43.7333 107.76 43.136 107.12 43.136C106.651 43.136 106.096 43.52 105.456 44.288C104.816 45.0133 104.176 46.1227 103.536 47.616C102.939 49.1093 102.427 50.88 102 52.928Z" fill="#FFFEFE"/>
</svg>
